<svg xmlns="http://www.w3.org/2000/svg" xml:space="preserve" width="2000" height="122" data-id="lg_GSxiYXuvW1251Zw0ga" data-version="1" viewBox="0 0 2000 122"><g data-padding="20"><g transform="translate(90.12 7.068)scale(.88413)"><rect width="411.53" height="122.04" x="416.301" y="-394.786" fill="none" rx="0" ry="0" transform="translate(474.73 400.35)"/><path fill="#272727" d="m900.136 90.614-.11-12.2.44-34.56v-8.64q0-9.83 1.08-10.32 1.08-.48 12.09-.48 24.3 0 38.02 8.21 15.66 9.28 15.66 28.72 0 10.05-5.24 18.53-5.24 8.47-14.09 13.66-11.56 6.37-35.43 6.37h-1.62l-4.43.11q-3.02 0-3.78-.33-.75-.32-1.4-.75-1.3-.65-1.3-2.81Zm10.91-52.81v6.37q0 32.51-.11 47.85h1.3q43.41 0 43.41-29.49 0-23.76-25.7-28.4-4.43-.87-9.4-.87-4.96 0-9.28.33-.22.43-.22 4.21m65.77 57.46.54-37.7v-33.69q0-1.84 1.08-2.7 1.08-.87 5.19-.87 4.1 0 4.1 2.16v3.03q-.22 5.4-.22 10.69t.06 12.26q.05 6.96.05 8.04 4.86-2.37 9.34-3.4 4.49-1.02 6.75-1.02 10.48 0 14.26 5.4t3.78 18.36-.16 15.06q-.16 2.11-.16 3.73v2.16q0 2.16-.98 2.59-2.37.86-4.59.86-2.21 0-3.07-.21-.87-.22-1.19-1.08-.33-.87-.38-1.3t0-2.16.05-2.37l.11-20.42q0-7.23-2.21-10.2-2.22-2.97-9.56-2.97-11.66 0-11.66 3.78l-.11 9.29q0 15.33-.16 18.9-.17 3.56-.11 4.59.05 1.02-.06 1.83-.1.81-.64 1.24-.98 1.08-4 1.08t-4-.21q-2.05-.54-2.05-4.75m85.11 4.86q-3.24 0-3.03-3.57 0-1.19-.32-1.19-.87.33-3.46 1.84-12.85 7.88-22.57.97-4.43-3.13-4.43-8.64 0-8.31 7.72-12.09 7.73-3.78 19.17-3.78 2.06 0 3.03.1 0-1.83.11-2.59 0-6.15-3.41-9.23-3.4-3.08-9.45-3.08-2.91 0-6.26.86-3.35.87-4.32.87t-1.57-1.19q-.59-1.19-.59-3.13 0-1.95 4.81-3.08 4.8-1.13 9.23-1.13 10.48 0 15.93 5.5 5.45 5.51 5.45 16.1v22.24q0 2.92-1.08 3.57t-4.96.65m-4-11.34q.22-3.03.22-6.48 0-3.46-.11-3.89-14.91 1.4-18.15 5.4-1.72 2.05-1.72 4.75 0 5.72 8.53 5.72 4.32 0 7.72-1.99 3.4-2 3.51-3.51m24.84-35.54 5.08-.1q0 .54.64 2.7.65-.22 3.68-1.3 7.12-2.48 11.82-2.48t8.26 1.45q3.57 1.46 5.51 3.68 1.95 2.21 3.13 5.88 1.73 5.94 1.73 15.77l-.54 18.47q0 2.16-.38 2.48-.37.33-3.02.33t-6.1-.44q-.33-2.59-.33-9.07l.11-13.82q0-8.64-2.91-13.02-2.92-4.37-9.99-4.37-7.08 0-10.75 2.05l.22 14.47q.1 9.72.1 15.12l.22 6.38q0 1.72-.86 2.21-.87.49-3.68.49l-5.61-.22-.43-22.57.43-16.42v-3.89q0-3.78 3.67-3.78m46.98 41.48 3.89.43q4.32 0 7.77-1.89 3.46-1.89 3.46-5.46 0-1.29-.49-2.75-.48-1.46-3.45-4.21-2.97-2.76-5.46-6.32-2.48-3.56-2.48-7.99 0-4.32 3.89-9.07 1.83-2.27 5.51-3.84 3.67-1.56 7.18-1.56t4.32.81.59 2.32l-.86 3.13q-1.62-.43-3.73-.43-2.1 0-4.37 1.67-2.27 1.68-2.27 4.27t1.94 5.24q1.95 2.64 4.32 4.59 2.38 1.94 4.32 5.29 1.95 3.35 1.95 7.23 0 7.46-6.59 11.29t-15.66 3.83q-2.38 0-3.46-.91-1.08-.92-1.08-2.92t.76-2.75m72.58-21.39-24.74.11q-3.99 0-4.64.65-.54.75-.54 2.48 0 8.43 4.81 12.91 4.8 4.48 10.96 4.48 6.15 0 9.61-1.62.11 0 2.16-1.4 2.05-1.41 2.86-1.41t1.24.65q.44.65.44 1.3 0 4.1-6.05 6.96t-14.1 2.86q-8.04 0-15.33-6.48t-7.29-17.49q0-11.02 6.86-18.15 6.85-7.12 18.41-7.12 8.42 0 13.61 4.96 5.51 5.19 5.51 12.53 0 3.78-3.78 3.78m-28.08-5.29q20.52 0 23.76-.22-.33-4.32-3.3-7.12-2.97-2.81-7.5-2.81-4.54 0-8.48 3.18-3.94 3.19-4.48 6.97m53.03.76-.21 15.55q0 4.43 1.51 6.75t5.08 2.32q3.56 0 6.04-.65 4.65-1.29 4.65 1.3 0 7.23-13.39 7.23-7.56 0-11.78-6.8-2.05-4.32-2.05-10.26l.22-12.53.21-9.07q0-1.51-.43-1.89t-1.62-.38l-4.21.33q-2.7 0-2.7-1.73 0-3.03.7-4.27t2.65-1.24l4.21.32q1.51 0 1.51-3.67v-6.69q0-2.81.11-3.24 1.3-.65 8.53-.65 1.95 0 1.95 2.05l-.33 11.88q1.3.11 4.21.11l8.64-.65q1.73 0 1.73 2.05 0 5.94-5.83 5.94l-7.02-.43q-1.73 0-2.16.22-.22 1.94-.22 8.1m55.29 19 .54-19.65v-5.62q0-4.53.7-6.86.7-2.32 2.97-2.32 3.78 0 5.4.54.65.87.65 5.73l.32 27.32.44 9.5q0 3.46-.87 3.57-2.27.32-4.16.32t-2.59-.38q-.7-.37-.92-1.08-.21-.7-.32-1.45l-.22-1.52q-.1-1.72-.54-1.51-1.29-.11-5.18 3.24-1.51 1.41-4.75 2.54t-7.89 1.13q-4.64 0-8.26-2.26-3.62-2.27-5.34-6.16-3.03-7.13-3.03-15.98l.22-17.18.11-1.94q0-2.38.97-3.4.97-1.03 3.99-1.03 3.03 0 3.84.49.81.48.81 2.43l-.22 15.77q0 12.42 2.59 16.52 1.19 1.84 3.51 3.13 2.33 1.3 5.57 1.3t7.45-1.3q4.21-1.29 4.21-3.89"/><path fill="#3d9970" d="M784.29 47.464a57.638 27.88-45 1 0 39.427 39.43 57.638 27.88-45 1 0-39.428-39.43"/><path fill="#ffdc00" d="M776.436 65.724a29.24 60.45 0 1 0 58.48 0 29.24 60.45 0 1 0-58.48 0"/><path fill="#0074d9" d="M802.23 70.867a27.2 56.232-49 1 0 35.69-41.057 27.2 56.232-49 1 0-35.69 41.057"/></g><path fill="transparent" stroke="transparent" stroke-width=".919" d="M767.451 9.873h483.431V122h-483.43z"/></g></svg>